<?xml version="1.0" standalone="no"?>
<!DOCTYPE svg PUBLIC "-//W3C//DTD SVG 20010904//EN"
 "http://www.w3.org/TR/2001/REC-SVG-20010904/DTD/svg10.dtd">
<svg version="1.0" xmlns="http://www.w3.org/2000/svg"
 width="512.000000pt" height="512.000000pt" viewBox="0 0 512.000000 512.000000"
 preserveAspectRatio="xMidYMid meet">
<metadata>
Created by potrace 1.11, written by Peter Selinger 2001-2013
</metadata>
<g transform="translate(0.000000,512.000000) scale(0.100000,-0.100000)"
fill="#000000" stroke="none">
<path d="M3260 5110 c-181 -53 -274 -246 -197 -413 23 -50 120 -150 800 -831
480 -480 789 -782 813 -794 36 -18 58 -24 134 -36 14 -2 49 3 77 10 143 37
232 154 228 299 -4 111 -26 142 -282 398 l-227 227 176 177 c177 179 185 190
186 263 1 13 -7 38 -18 55 -29 46 -466 478 -497 492 -83 36 -123 13 -317 -182
l-167 -166 -229 228 c-255 253 -286 275 -395 279 -33 1 -71 -2 -85 -6z"/>
<path d="M2420 4685 c-77 -21 -99 -33 -148 -83 -57 -58 -84 -126 -83 -212 0
-130 -54 -70 1044 -1166 1088 -1087 1022 -1028 1152 -1033 217 -8 368 210 284
411 -19 47 -136 167 -998 1031 -537 538 -994 991 -1016 1006 -71 50 -159 67
-235 46z"/>
<path d="M2244 2879 c-247 -247 -451 -452 -453 -455 -5 -4 620 -634 629 -634
4 0 861 854 909 906 5 4 -620 633 -630 634 -3 0 -207 -203 -455 -451z"/>
<path d="M602 2904 c-64 -31 -113 -79 -144 -137 -31 -57 -33 -202 -4 -262 13
-27 337 -359 1005 -1027 1045 -1047 1038 -1041 1140 -1051 230 -21 398 204
310 415 -20 47 -132 163 -1007 1040 -725 726 -999 994 -1036 1014 -41 22 -66
28 -131 31 -70 3 -86 0 -133 -23z"/>
<path d="M213 2068 c-164 -50 -252 -234 -188 -393 12 -29 28 -60 36 -69 8 -8
113 -114 233 -236 l220 -220 -176 -178 c-166 -167 -176 -180 -183 -224 -5 -33
-3 -55 9 -80 9 -19 123 -141 254 -270 323 -321 299 -319 563 -57 l171 170 222
-220 c240 -240 254 -252 306 -270 200 -70 403 71 403 279 0 133 36 93 -826
954 -475 475 -790 782 -814 794 -73 38 -152 44 -230 20z"/>
</g>
</svg>
